<svg width="82" height="24" viewBox="0 0 82 24" fill="none" xmlns="http://www.w3.org/2000/svg">
<path d="M35.897 5.95485L36.097 6.66685H36.577V3.65885H34.073V4.29885H35.897C35.9076 4.56018 35.873 4.80551 35.793 5.03485C35.713 5.25885 35.593 5.45618 35.433 5.62685C35.2783 5.79218 35.0863 5.92285 34.857 6.01885C34.6276 6.11485 34.3636 6.16285 34.065 6.16285C33.745 6.16285 33.4623 6.10151 33.217 5.97885C32.977 5.85085 32.7743 5.68285 32.609 5.47485C32.4436 5.26151 32.3183 5.01885 32.233 4.74685C32.1476 4.46951 32.105 4.18151 32.105 3.88285C32.105 3.57885 32.1423 3.28285 32.217 2.99485C32.2916 2.70151 32.4063 2.44285 32.561 2.21885C32.721 1.98951 32.9236 1.80551 33.169 1.66685C33.4196 1.52818 33.7183 1.45885 34.065 1.45885C34.2783 1.45885 34.4783 1.48551 34.665 1.53885C34.857 1.58685 35.0276 1.66151 35.177 1.76285C35.3263 1.86418 35.4516 1.99485 35.553 2.15485C35.6543 2.30951 35.7236 2.49618 35.761 2.71485H36.521C36.4676 2.37885 36.3663 2.09351 36.217 1.85885C36.073 1.61885 35.8916 1.42151 35.673 1.26685C35.4596 1.11218 35.2143 1.00018 34.937 0.930848C34.665 0.856181 34.3743 0.818848 34.065 0.818848C33.6116 0.818848 33.2143 0.904181 32.873 1.07485C32.537 1.24018 32.2543 1.46418 32.025 1.74685C31.801 2.02951 31.6303 2.36018 31.513 2.73885C31.401 3.11218 31.345 3.50685 31.345 3.92285C31.345 4.29618 31.4063 4.65618 31.529 5.00285C31.6516 5.34951 31.8303 5.65618 32.065 5.92285C32.2996 6.18951 32.585 6.40285 32.921 6.56285C33.257 6.71751 33.6383 6.79485 34.065 6.79485C34.401 6.79485 34.7343 6.73085 35.065 6.60285C35.3956 6.46951 35.673 6.25351 35.897 5.95485Z" fill="#012236"/>
<path d="M40.4553 4.20285H38.0793C38.0899 4.04285 38.1246 3.89351 38.1833 3.75485C38.2419 3.61085 38.322 3.48551 38.4233 3.37885C38.5246 3.27218 38.6446 3.18951 38.7833 3.13085C38.9273 3.06685 39.0873 3.03485 39.2633 3.03485C39.434 3.03485 39.5886 3.06685 39.7273 3.13085C39.8713 3.18951 39.994 3.27218 40.0953 3.37885C40.202 3.48018 40.2846 3.60285 40.3433 3.74685C40.4073 3.89085 40.4446 4.04285 40.4553 4.20285ZM41.1113 5.35485H40.4393C40.3806 5.62685 40.2579 5.82951 40.0713 5.96285C39.8899 6.09618 39.6553 6.16285 39.3673 6.16285C39.1433 6.16285 38.9486 6.12551 38.7833 6.05085C38.6179 5.97618 38.4819 5.87751 38.3753 5.75485C38.2686 5.62685 38.1913 5.48285 38.1433 5.32285C38.0953 5.15751 38.0739 4.98418 38.0793 4.80285H41.1753C41.186 4.55218 41.1619 4.28818 41.1033 4.01085C41.0499 3.73351 40.9486 3.47751 40.7993 3.24285C40.6553 3.00818 40.4606 2.81618 40.2153 2.66685C39.9753 2.51218 39.6713 2.43485 39.3033 2.43485C39.0206 2.43485 38.7593 2.48818 38.5193 2.59485C38.2846 2.70151 38.0793 2.85085 37.9033 3.04285C37.7326 3.23485 37.5993 3.46151 37.5033 3.72285C37.4073 3.98418 37.3593 4.27218 37.3593 4.58685C37.37 4.90151 37.4153 5.19218 37.4953 5.45885C37.5806 5.72551 37.706 5.95485 37.8713 6.14685C38.0366 6.33885 38.2393 6.48818 38.4793 6.59485C38.7246 6.70151 39.0126 6.75485 39.3433 6.75485C39.8126 6.75485 40.202 6.63751 40.5113 6.40285C40.8206 6.16818 41.0206 5.81885 41.1113 5.35485Z" fill="#012236"/>
<path d="M42.8242 2.53085V1.29085H42.1442V2.53085H41.4402V3.13085H42.1442V5.76285C42.1442 5.95485 42.1628 6.10951 42.2002 6.22685C42.2375 6.34418 42.2935 6.43485 42.3682 6.49885C42.4482 6.56285 42.5495 6.60818 42.6722 6.63485C42.8002 6.65618 42.9522 6.66685 43.1282 6.66685H43.6482V6.06685H43.3362C43.2295 6.06685 43.1415 6.06418 43.0722 6.05885C43.0082 6.04818 42.9575 6.02951 42.9202 6.00285C42.8828 5.97618 42.8562 5.93885 42.8402 5.89085C42.8295 5.84285 42.8242 5.77885 42.8242 5.69885V3.13085H43.6482V2.53085H42.8242Z" fill="#012236"/>
<path d="M47.3502 1.78685V0.954847H46.6702V1.78685H47.3502ZM46.6702 2.53085V6.66685H47.3502V2.53085H46.6702Z" fill="#012236"/>
<path d="M49.3476 2.53085V1.29085H48.6676V2.53085H47.9636V3.13085H48.6676V5.76285C48.6676 5.95485 48.6863 6.10951 48.7236 6.22685C48.7609 6.34418 48.8169 6.43485 48.8916 6.49885C48.9716 6.56285 49.0729 6.60818 49.1956 6.63485C49.3236 6.65618 49.4756 6.66685 49.6516 6.66685H50.1716V6.06685H49.8596C49.7529 6.06685 49.6649 6.06418 49.5956 6.05885C49.5316 6.04818 49.4809 6.02951 49.4436 6.00285C49.4063 5.97618 49.3796 5.93885 49.3636 5.89085C49.3529 5.84285 49.3476 5.77885 49.3476 5.69885V3.13085H50.1716V2.53085H49.3476Z" fill="#012236"/>
<path d="M53.6496 4.60285C53.6496 4.35218 53.6816 4.13085 53.7456 3.93885C53.8149 3.74151 53.9083 3.57618 54.0256 3.44285C54.1429 3.30951 54.2789 3.20818 54.4336 3.13885C54.5936 3.06951 54.7616 3.03485 54.9376 3.03485C55.1136 3.03485 55.2789 3.06951 55.4336 3.13885C55.5936 3.20818 55.7323 3.30951 55.8496 3.44285C55.9669 3.57618 56.0576 3.74151 56.1216 3.93885C56.1909 4.13085 56.2256 4.35218 56.2256 4.60285C56.2256 4.85351 56.1909 5.07751 56.1216 5.27485C56.0576 5.46685 55.9669 5.62951 55.8496 5.76285C55.7323 5.89085 55.5936 5.98951 55.4336 6.05885C55.2789 6.12818 55.1136 6.16285 54.9376 6.16285C54.7616 6.16285 54.5936 6.12818 54.4336 6.05885C54.2789 5.98951 54.1429 5.89085 54.0256 5.76285C53.9083 5.62951 53.8149 5.46685 53.7456 5.27485C53.6816 5.07751 53.6496 4.85351 53.6496 4.60285ZM52.9296 4.60285C52.9296 4.90685 52.9723 5.18951 53.0576 5.45085C53.1429 5.71218 53.2709 5.94151 53.4416 6.13885C53.6123 6.33085 53.8229 6.48285 54.0736 6.59485C54.3243 6.70151 54.6123 6.75485 54.9376 6.75485C55.2683 6.75485 55.5563 6.70151 55.8016 6.59485C56.0523 6.48285 56.2629 6.33085 56.4336 6.13885C56.6043 5.94151 56.7323 5.71218 56.8176 5.45085C56.9029 5.18951 56.9456 4.90685 56.9456 4.60285C56.9456 4.29885 56.9029 4.01618 56.8176 3.75485C56.7323 3.48818 56.6043 3.25885 56.4336 3.06685C56.2629 2.86951 56.0523 2.71485 55.8016 2.60285C55.5563 2.49085 55.2683 2.43485 54.9376 2.43485C54.6123 2.43485 54.3243 2.49085 54.0736 2.60285C53.8229 2.71485 53.6123 2.86951 53.4416 3.06685C53.2709 3.25885 53.1429 3.48818 53.0576 3.75485C52.9723 4.01618 52.9296 4.29885 52.9296 4.60285Z" fill="#012236"/>
<path d="M57.7473 2.53085V6.66685H58.4273V4.33085C58.4273 4.14418 58.4513 3.97351 58.4993 3.81885C58.5527 3.65885 58.63 3.52018 58.7313 3.40285C58.8327 3.28551 58.958 3.19485 59.1073 3.13085C59.262 3.06685 59.4433 3.03485 59.6513 3.03485C59.9127 3.03485 60.118 3.10951 60.2673 3.25885C60.4167 3.40818 60.4913 3.61085 60.4913 3.86685V6.66685H61.1713V3.94685C61.1713 3.72285 61.1473 3.52018 61.0993 3.33885C61.0567 3.15218 60.9793 2.99218 60.8673 2.85885C60.7553 2.72551 60.6087 2.62151 60.4273 2.54685C60.246 2.47218 60.0193 2.43485 59.7473 2.43485C59.134 2.43485 58.686 2.68551 58.4033 3.18685H58.3873V2.53085H57.7473Z" fill="#012236"/>
<path d="M33.6565 18.723L34.6485 15.9283H34.6699L35.6299 18.723H33.6565ZM33.8165 14.051L30.9365 21.667H32.6219L33.2192 19.971H36.0672L36.6432 21.667H38.3819L35.5339 14.051H33.8165Z" fill="#012236"/>
<path d="M41.6626 20.675C41.4208 20.675 41.2146 20.6252 41.0439 20.5256C40.8733 20.4261 40.7346 20.2981 40.6279 20.1416C40.5284 19.9781 40.4537 19.7896 40.4039 19.5763C40.3613 19.363 40.3399 19.1461 40.3399 18.9256C40.3399 18.6981 40.3613 18.4776 40.4039 18.2643C40.4466 18.051 40.5177 17.8625 40.6173 17.699C40.7239 17.5354 40.8591 17.4039 41.0226 17.3043C41.1933 17.1976 41.4031 17.1443 41.6519 17.1443C41.8937 17.1443 42.0964 17.1976 42.2599 17.3043C42.4306 17.4039 42.5693 17.539 42.6759 17.7096C42.7826 17.8732 42.8573 18.0616 42.8999 18.275C42.9497 18.4883 42.9746 18.7052 42.9746 18.9256C42.9746 19.1461 42.9533 19.363 42.9106 19.5763C42.8679 19.7896 42.7933 19.9781 42.6866 20.1416C42.5871 20.2981 42.4519 20.4261 42.2813 20.5256C42.1177 20.6252 41.9115 20.675 41.6626 20.675ZM38.8786 16.1523V23.5976H40.3933V20.9843H40.4146C40.5995 21.2545 40.8342 21.4607 41.1186 21.603C41.4102 21.7381 41.7266 21.8056 42.0679 21.8056C42.4733 21.8056 42.8253 21.7274 43.1239 21.571C43.4297 21.4145 43.6822 21.2047 43.8813 20.9416C44.0875 20.6785 44.2404 20.3763 44.3399 20.035C44.4395 19.6936 44.4893 19.3381 44.4893 18.9683C44.4893 18.5772 44.4395 18.2039 44.3399 17.8483C44.2404 17.4856 44.0875 17.1692 43.8813 16.899C43.6751 16.6287 43.4155 16.4119 43.1026 16.2483C42.7897 16.0847 42.4164 16.003 41.9826 16.003C41.6413 16.003 41.3284 16.0705 41.0439 16.2056C40.7595 16.3407 40.5248 16.5576 40.3399 16.8563H40.3186V16.1523H38.8786Z" fill="#012236"/>
<path d="M48.1834 20.675C47.9417 20.675 47.7354 20.6252 47.5648 20.5256C47.3941 20.4261 47.2554 20.2981 47.1488 20.1416C47.0492 19.9781 46.9746 19.7896 46.9248 19.5763C46.8821 19.363 46.8608 19.1461 46.8608 18.9256C46.8608 18.6981 46.8821 18.4776 46.9248 18.2643C46.9674 18.051 47.0386 17.8625 47.1381 17.699C47.2448 17.5354 47.3799 17.4039 47.5434 17.3043C47.7141 17.1976 47.9239 17.1443 48.1728 17.1443C48.4146 17.1443 48.6172 17.1976 48.7808 17.3043C48.9514 17.4039 49.0901 17.539 49.1968 17.7096C49.3034 17.8732 49.3781 18.0616 49.4208 18.275C49.4706 18.4883 49.4954 18.7052 49.4954 18.9256C49.4954 19.1461 49.4741 19.363 49.4314 19.5763C49.3888 19.7896 49.3141 19.9781 49.2074 20.1416C49.1079 20.2981 48.9728 20.4261 48.8021 20.5256C48.6386 20.6252 48.4323 20.675 48.1834 20.675ZM45.3994 16.1523V23.5976H46.9141V20.9843H46.9354C47.1203 21.2545 47.355 21.4607 47.6394 21.603C47.931 21.7381 48.2474 21.8056 48.5888 21.8056C48.9941 21.8056 49.3461 21.7274 49.6448 21.571C49.9506 21.4145 50.203 21.2047 50.4021 20.9416C50.6083 20.6785 50.7612 20.3763 50.8608 20.035C50.9603 19.6936 51.0101 19.3381 51.0101 18.9683C51.0101 18.5772 50.9603 18.2039 50.8608 17.8483C50.7612 17.4856 50.6083 17.1692 50.4021 16.899C50.1959 16.6287 49.9363 16.4119 49.6234 16.2483C49.3106 16.0847 48.9372 16.003 48.5034 16.003C48.1621 16.003 47.8492 16.0705 47.5648 16.2056C47.2803 16.3407 47.0457 16.5576 46.8608 16.8563H46.8394V16.1523H45.3994Z" fill="#012236"/>
<path d="M56.1904 19.139H54.569C54.5619 19.6083 54.6472 20.0136 54.825 20.355C55.0028 20.6963 55.241 20.9772 55.5397 21.1976C55.8455 21.4181 56.1939 21.5781 56.585 21.6776C56.9832 21.7843 57.3921 21.8376 57.8117 21.8376C58.3308 21.8376 58.7859 21.7772 59.177 21.6563C59.5752 21.5354 59.9059 21.3683 60.169 21.155C60.4392 20.9345 60.6419 20.675 60.777 20.3763C60.9121 20.0776 60.9797 19.7541 60.9797 19.4056C60.9797 18.979 60.8872 18.6305 60.7024 18.3603C60.5246 18.083 60.3112 17.8625 60.0624 17.699C59.8135 17.5354 59.561 17.4181 59.305 17.347C59.0561 17.2687 58.8606 17.2154 58.7184 17.187C58.2419 17.0661 57.8544 16.9665 57.5557 16.8883C57.2641 16.8101 57.033 16.7319 56.8624 16.6536C56.6988 16.5754 56.5886 16.4901 56.5317 16.3976C56.4748 16.3052 56.4464 16.1843 56.4464 16.035C56.4464 15.8714 56.4819 15.7363 56.553 15.6296C56.6241 15.523 56.713 15.4341 56.8197 15.363C56.9335 15.2919 57.0579 15.2421 57.193 15.2136C57.3281 15.1852 57.4632 15.171 57.5984 15.171C57.8046 15.171 57.993 15.1887 58.1637 15.2243C58.3415 15.2599 58.4979 15.3203 58.633 15.4056C58.7681 15.491 58.8748 15.6083 58.953 15.7576C59.0384 15.907 59.0881 16.0954 59.1024 16.323H60.7237C60.7237 15.8821 60.6384 15.5087 60.4677 15.203C60.3041 14.8901 60.0801 14.6341 59.7957 14.435C59.5112 14.2359 59.1841 14.0936 58.8144 14.0083C58.4517 13.9159 58.0712 13.8696 57.673 13.8696C57.3317 13.8696 56.9904 13.9159 56.649 14.0083C56.3077 14.1007 56.0019 14.243 55.7317 14.435C55.4615 14.627 55.241 14.8687 55.0704 15.1603C54.9068 15.4447 54.825 15.7825 54.825 16.1736C54.825 16.5221 54.889 16.8207 55.017 17.0696C55.1521 17.3114 55.3264 17.5141 55.5397 17.6776C55.753 17.8412 55.9948 17.9763 56.265 18.083C56.5352 18.1825 56.8126 18.2679 57.097 18.339C57.3744 18.4172 57.6481 18.4883 57.9184 18.5523C58.1886 18.6163 58.4304 18.691 58.6437 18.7763C58.857 18.8616 59.0277 18.9683 59.1557 19.0963C59.2908 19.2243 59.3584 19.3914 59.3584 19.5976C59.3584 19.7896 59.3086 19.9496 59.209 20.0776C59.1095 20.1985 58.985 20.2945 58.8357 20.3656C58.6864 20.4367 58.5264 20.4865 58.3557 20.515C58.185 20.5363 58.025 20.547 57.8757 20.547C57.6552 20.547 57.4419 20.5221 57.2357 20.4723C57.0295 20.4154 56.8481 20.3336 56.6917 20.227C56.5424 20.1132 56.4215 19.9674 56.329 19.7896C56.2366 19.6119 56.1904 19.395 56.1904 19.139Z" fill="#012236"/>
<path d="M63.7361 16.1523V14.499H62.2214V16.1523H61.3041V17.1656H62.2214V20.419C62.2214 20.6963 62.2677 20.9203 62.3601 21.091C62.4526 21.2616 62.577 21.3932 62.7334 21.4856C62.897 21.5781 63.0819 21.6385 63.2881 21.667C63.5014 21.7025 63.7254 21.7203 63.9601 21.7203C64.1094 21.7203 64.2623 21.7167 64.4188 21.7096C64.5752 21.7025 64.7174 21.6883 64.8454 21.667V20.4936C64.7743 20.5079 64.6997 20.5185 64.6214 20.5256C64.5432 20.5327 64.4614 20.5363 64.3761 20.5363C64.1201 20.5363 63.9494 20.4936 63.8641 20.4083C63.7788 20.323 63.7361 20.1523 63.7361 19.8963V17.1656H64.8454V16.1523H63.7361Z" fill="#012236"/>
<path d="M66.9101 18.915C66.9101 18.6945 66.9314 18.4776 66.9741 18.2643C67.0168 18.051 67.0879 17.8625 67.1874 17.699C67.2941 17.5354 67.4328 17.4039 67.6034 17.3043C67.7741 17.1976 67.9874 17.1443 68.2434 17.1443C68.4994 17.1443 68.7128 17.1976 68.8834 17.3043C69.0612 17.4039 69.1999 17.5354 69.2994 17.699C69.4061 17.8625 69.4808 18.051 69.5234 18.2643C69.5661 18.4776 69.5874 18.6945 69.5874 18.915C69.5874 19.1354 69.5661 19.3523 69.5234 19.5656C69.4808 19.7719 69.4061 19.9603 69.2994 20.131C69.1999 20.2945 69.0612 20.4261 68.8834 20.5256C68.7128 20.6252 68.4994 20.675 68.2434 20.675C67.9874 20.675 67.7741 20.6252 67.6034 20.5256C67.4328 20.4261 67.2941 20.2945 67.1874 20.131C67.0879 19.9603 67.0168 19.7719 66.9741 19.5656C66.9314 19.3523 66.9101 19.1354 66.9101 18.915ZM65.3954 18.915C65.3954 19.3559 65.463 19.7541 65.5981 20.1096C65.7332 20.4652 65.9252 20.771 66.1741 21.027C66.423 21.2759 66.7217 21.4679 67.0701 21.603C67.4186 21.7381 67.8097 21.8056 68.2434 21.8056C68.6772 21.8056 69.0683 21.7381 69.4168 21.603C69.7723 21.4679 70.0746 21.2759 70.3234 21.027C70.5723 20.771 70.7643 20.4652 70.8994 20.1096C71.0346 19.7541 71.1021 19.3559 71.1021 18.915C71.1021 18.4741 71.0346 18.0759 70.8994 17.7203C70.7643 17.3576 70.5723 17.0519 70.3234 16.803C70.0746 16.547 69.7723 16.3514 69.4168 16.2163C69.0683 16.0741 68.6772 16.003 68.2434 16.003C67.8097 16.003 67.4186 16.0741 67.0701 16.2163C66.7217 16.3514 66.423 16.547 66.1741 16.803C65.9252 17.0519 65.7332 17.3576 65.5981 17.7203C65.463 18.0759 65.3954 18.4741 65.3954 18.915Z" fill="#012236"/>
<path d="M72.0869 16.1523V21.667H73.6016V19.1816C73.6016 18.9327 73.6265 18.7016 73.6763 18.4883C73.7261 18.275 73.8078 18.0901 73.9216 17.9336C74.0425 17.7701 74.1989 17.6421 74.3909 17.5496C74.5829 17.4572 74.8176 17.411 75.0949 17.411C75.1874 17.411 75.2834 17.4181 75.3829 17.4323C75.4825 17.4394 75.5678 17.4501 75.6389 17.4643V16.0563C75.5181 16.0207 75.4078 16.003 75.3083 16.003C75.1163 16.003 74.9314 16.0314 74.7536 16.0883C74.5758 16.1452 74.4087 16.227 74.2523 16.3336C74.0958 16.4332 73.9572 16.5576 73.8363 16.707C73.7154 16.8492 73.6194 17.0056 73.5483 17.1763H73.5269V16.1523H72.0869Z" fill="#012236"/>
<path d="M79.7573 18.3176H77.2933C77.3004 18.211 77.3217 18.0901 77.3573 17.955C77.3999 17.8199 77.4675 17.6919 77.5599 17.571C77.6595 17.4501 77.7875 17.3505 77.9439 17.2723C78.1075 17.187 78.3102 17.1443 78.5519 17.1443C78.9217 17.1443 79.1955 17.2439 79.3733 17.443C79.5582 17.6421 79.6862 17.9336 79.7573 18.3176ZM77.2933 19.2776H81.2719C81.3004 18.851 81.2648 18.4421 81.1653 18.051C81.0657 17.6599 80.9022 17.3114 80.6746 17.0056C80.4542 16.6999 80.1697 16.4581 79.8213 16.2803C79.4728 16.0954 79.0639 16.003 78.5946 16.003C78.175 16.003 77.7911 16.0776 77.4426 16.227C77.1013 16.3763 76.8062 16.5825 76.5573 16.8456C76.3084 17.1016 76.1164 17.4074 75.9813 17.763C75.8462 18.1185 75.7786 18.5025 75.7786 18.915C75.7786 19.3416 75.8426 19.7327 75.9706 20.0883C76.1057 20.4439 76.2942 20.7496 76.5359 21.0056C76.7777 21.2616 77.0728 21.4607 77.4213 21.603C77.7697 21.7381 78.1608 21.8056 78.5946 21.8056C79.2204 21.8056 79.7537 21.6634 80.1946 21.379C80.6355 21.0945 80.9626 20.6216 81.1759 19.9603H79.8426C79.7928 20.131 79.6577 20.2945 79.4373 20.451C79.2168 20.6003 78.9537 20.675 78.6479 20.675C78.2213 20.675 77.8942 20.5647 77.6666 20.3443C77.4391 20.1239 77.3146 19.7683 77.2933 19.2776Z" fill="#012236"/>
<path d="M13.4605 1.3335C11.0865 2.1355 9.23638 2.93751 9.50016 6.41286C11.8742 5.87819 13.988 4.54151 13.4605 1.3335ZM5.92079 6.15889C3.63508 6.15889 0.333496 8.19064 0.333496 12.0002C0.333496 17.3335 3.88905 22.6668 5.92079 22.6668C7.4446 22.6668 8.71444 21.651 9.73032 21.651C10.7462 21.651 11.7621 22.6668 13.2859 22.6668C15.3176 22.6668 17.6033 19.6192 18.1113 16.8256C16.3335 15.5557 15.0636 14.7938 15.0636 12.5081C15.0636 10.9843 16.3335 9.46047 17.8573 8.19063C17.0954 7.17477 15.5716 6.15889 14.0478 6.15889C12.524 6.15889 10.8853 7.3645 9.73032 7.42873C8.71444 7.42873 7.4446 6.15889 5.92079 6.15889Z" fill="#012236"/>
</svg>
