<svg width="140" height="140" viewBox="0 0 140 140" fill="none" xmlns="http://www.w3.org/2000/svg">
<g clip-path="url(#clip0)">
<g clip-path="url(#clip1)">
<path d="M124.392 29.2182L134.925 95.7201C135.153 97.1579 134.886 98.5754 134.254 99.7565C133.334 101.491 131.64 102.79 129.547 103.122L22.5177 120.074C20.4251 120.405 18.4127 119.692 17.0009 118.328C16.0352 117.4 15.3435 116.134 15.1157 114.696L4.58286 48.1941C4.38297 46.932 4.56315 45.6919 5.0587 44.5816C5.91199 42.6288 7.70803 41.1489 9.96046 40.7922L116.99 23.8403C119.242 23.4836 121.408 24.336 122.823 25.9296C123.638 26.8323 124.192 27.9561 124.392 29.2182Z" fill="#EBEFF2"/>
<path d="M134.254 99.7563C133.334 101.49 131.64 102.79 129.547 103.122L22.5178 120.073C20.4252 120.405 18.4128 119.692 17.001 118.327L69.4164 69.8243L134.254 99.7563Z" fill="#D4D5DB"/>
<path d="M122.823 25.9294L75.1472 85.1851C73.5831 87.1291 70.7996 87.57 68.7113 86.2045L5.05832 44.5815C5.91162 42.6286 7.70765 41.1487 9.96009 40.792L116.99 23.8402C119.242 23.4837 121.408 24.336 122.823 25.9294Z" fill="#647989"/>
<path d="M122.823 25.9294L74.2831 80.8203C72.7437 82.5611 70.1866 82.9661 68.1846 81.7862L5.05832 44.5815C5.91162 42.6286 7.70765 41.1487 9.96009 40.792L116.99 23.8402C119.242 23.4837 121.408 24.336 122.823 25.9294Z" fill="#E0E5E8"/>
<ellipse cx="143.045" cy="25.9284" rx="11.0622" ry="11.0622" transform="rotate(0.999997 143.045 25.9284)" fill="#EC442A"/>
</g>
<circle cx="125.222" cy="24.0122" r="13.6056" transform="rotate(-9 125.222 24.0122)" fill="#EB5757" stroke="white" stroke-width="2.91549"/>
</g>
<defs>
<clipPath id="clip0">
<rect width="140" height="140" fill="white"/>
</clipPath>
<clipPath id="clip1">
<rect width="121.303" height="121.303" fill="white" transform="translate(0.361328 21.5403) rotate(-9)"/>
</clipPath>
</defs>
</svg>
