<svg width="94" height="23" viewBox="0 0 94 23" fill="none" xmlns="http://www.w3.org/2000/svg">
<path d="M3.90074 1.33572C3.41474 1.02168 2.83099 0.926764 2.28345 1.05601L11.9056 10.6782L15.0242 7.55964L3.90074 1.33572Z" fill="#012236"/>
<path d="M1.08909 1.83838C0.820718 2.19517 0.66626 2.63325 0.66626 3.09667V20.2366C0.66626 20.7 0.82076 21.1381 1.08909 21.4949L10.9173 11.6667L1.08909 1.83838Z" fill="#012236"/>
<path d="M19.0945 9.83725L16.2917 8.26904L12.894 11.6667L16.2919 15.0645L19.0949 13.4962C19.7665 13.12 20.1673 12.4361 20.1673 11.6667C20.1673 10.8973 19.7665 10.2135 19.0945 9.83725Z" fill="#012236"/>
<path d="M11.905 12.6548L2.28345 22.2764C2.4412 22.3135 2.60174 22.3335 2.76228 22.3335C3.15903 22.3335 3.55441 22.2207 3.9002 21.9972L15.0237 15.7734L11.905 12.6548Z" fill="#012236"/>
<path d="M37.5627 5.136L37.7627 5.848H38.2427V2.84H35.7387V3.48H37.5627C37.5734 3.74133 37.5387 3.98667 37.4587 4.216C37.3787 4.44 37.2587 4.63733 37.0987 4.808C36.9441 4.97333 36.7521 5.104 36.5227 5.2C36.2934 5.296 36.0294 5.344 35.7307 5.344C35.4107 5.344 35.1281 5.28267 34.8827 5.16C34.6427 5.032 34.4401 4.864 34.2747 4.656C34.1094 4.44267 33.9841 4.2 33.8987 3.928C33.8134 3.65067 33.7707 3.36267 33.7707 3.064C33.7707 2.76 33.8081 2.464 33.8827 2.176C33.9574 1.88267 34.0721 1.624 34.2267 1.4C34.3867 1.17067 34.5894 0.986667 34.8347 0.848C35.0854 0.709333 35.3841 0.64 35.7307 0.64C35.9441 0.64 36.1441 0.666667 36.3307 0.72C36.5227 0.768 36.6934 0.842666 36.8427 0.944C36.9921 1.04533 37.1174 1.176 37.2187 1.336C37.3201 1.49067 37.3894 1.67733 37.4267 1.896H38.1867C38.1334 1.56 38.0321 1.27467 37.8827 1.04C37.7387 0.8 37.5574 0.602667 37.3387 0.448C37.1254 0.293333 36.8801 0.181333 36.6027 0.112C36.3307 0.0373333 36.0401 0 35.7307 0C35.2774 0 34.8801 0.0853332 34.5387 0.256C34.2027 0.421333 33.9201 0.645333 33.6907 0.928C33.4667 1.21067 33.2961 1.54133 33.1787 1.92C33.0667 2.29333 33.0107 2.688 33.0107 3.104C33.0107 3.47733 33.0721 3.83733 33.1947 4.184C33.3174 4.53067 33.4961 4.83733 33.7307 5.104C33.9654 5.37067 34.2507 5.584 34.5867 5.744C34.9227 5.89867 35.3041 5.976 35.7307 5.976C36.0667 5.976 36.4001 5.912 36.7307 5.784C37.0614 5.65067 37.3387 5.43467 37.5627 5.136Z" fill="#012236"/>
<path d="M42.1211 3.384H39.7451C39.7557 3.224 39.7904 3.07467 39.8491 2.936C39.9077 2.792 39.9877 2.66667 40.0891 2.56C40.1904 2.45333 40.3104 2.37067 40.4491 2.312C40.5931 2.248 40.7531 2.216 40.9291 2.216C41.0997 2.216 41.2544 2.248 41.3931 2.312C41.5371 2.37067 41.6597 2.45333 41.7611 2.56C41.8677 2.66133 41.9504 2.784 42.0091 2.928C42.0731 3.072 42.1104 3.224 42.1211 3.384ZM42.7771 4.536H42.1051C42.0464 4.808 41.9237 5.01067 41.7371 5.144C41.5557 5.27733 41.3211 5.344 41.0331 5.344C40.8091 5.344 40.6144 5.30667 40.4491 5.232C40.2837 5.15733 40.1477 5.05867 40.0411 4.936C39.9344 4.808 39.8571 4.664 39.8091 4.504C39.7611 4.33867 39.7397 4.16533 39.7451 3.984H42.8411C42.8517 3.73333 42.8277 3.46933 42.7691 3.192C42.7157 2.91467 42.6144 2.65867 42.4651 2.424C42.3211 2.18933 42.1264 1.99733 41.8811 1.848C41.6411 1.69333 41.3371 1.616 40.9691 1.616C40.6864 1.616 40.4251 1.66933 40.1851 1.776C39.9504 1.88267 39.7451 2.032 39.5691 2.224C39.3984 2.416 39.2651 2.64267 39.1691 2.904C39.0731 3.16533 39.0251 3.45333 39.0251 3.768C39.0357 4.08267 39.0811 4.37333 39.1611 4.64C39.2464 4.90667 39.3717 5.136 39.5371 5.328C39.7024 5.52 39.9051 5.66933 40.1451 5.776C40.3904 5.88267 40.6784 5.936 41.0091 5.936C41.4784 5.936 41.8677 5.81867 42.1771 5.584C42.4864 5.34933 42.6864 5 42.7771 4.536Z" fill="#012236"/>
<path d="M44.4899 1.712V0.472H43.8099V1.712H43.1059V2.312H43.8099V4.944C43.8099 5.136 43.8286 5.29067 43.8659 5.408C43.9033 5.52533 43.9593 5.616 44.0339 5.68C44.1139 5.744 44.2153 5.78933 44.3379 5.816C44.4659 5.83733 44.6179 5.848 44.7939 5.848H45.3139V5.248H45.0019C44.8953 5.248 44.8073 5.24533 44.7379 5.24C44.6739 5.22933 44.6233 5.21067 44.5859 5.184C44.5486 5.15733 44.5219 5.12 44.5059 5.072C44.4953 5.024 44.4899 4.96 44.4899 4.88V2.312H45.3139V1.712H44.4899Z" fill="#012236"/>
<path d="M49.0159 0.968V0.136H48.3359V0.968H49.0159ZM48.3359 1.712V5.848H49.0159V1.712H48.3359Z" fill="#012236"/>
<path d="M51.0134 1.712V0.472H50.3334V1.712H49.6294V2.312H50.3334V4.944C50.3334 5.136 50.352 5.29067 50.3894 5.408C50.4267 5.52533 50.4827 5.616 50.5574 5.68C50.6374 5.744 50.7387 5.78933 50.8614 5.816C50.9894 5.83733 51.1414 5.848 51.3174 5.848H51.8374V5.248H51.5254C51.4187 5.248 51.3307 5.24533 51.2614 5.24C51.1974 5.22933 51.1467 5.21067 51.1094 5.184C51.072 5.15733 51.0454 5.12 51.0294 5.072C51.0187 5.024 51.0134 4.96 51.0134 4.88V2.312H51.8374V1.712H51.0134Z" fill="#012236"/>
<path d="M55.3154 3.784C55.3154 3.53333 55.3474 3.312 55.4114 3.12C55.4807 2.92267 55.574 2.75733 55.6914 2.624C55.8087 2.49067 55.9447 2.38933 56.0994 2.32C56.2594 2.25067 56.4274 2.216 56.6034 2.216C56.7794 2.216 56.9447 2.25067 57.0994 2.32C57.2594 2.38933 57.398 2.49067 57.5154 2.624C57.6327 2.75733 57.7234 2.92267 57.7874 3.12C57.8567 3.312 57.8914 3.53333 57.8914 3.784C57.8914 4.03467 57.8567 4.25867 57.7874 4.456C57.7234 4.648 57.6327 4.81067 57.5154 4.944C57.398 5.072 57.2594 5.17067 57.0994 5.24C56.9447 5.30933 56.7794 5.344 56.6034 5.344C56.4274 5.344 56.2594 5.30933 56.0994 5.24C55.9447 5.17067 55.8087 5.072 55.6914 4.944C55.574 4.81067 55.4807 4.648 55.4114 4.456C55.3474 4.25867 55.3154 4.03467 55.3154 3.784ZM54.5954 3.784C54.5954 4.088 54.638 4.37067 54.7234 4.632C54.8087 4.89333 54.9367 5.12267 55.1074 5.32C55.278 5.512 55.4887 5.664 55.7394 5.776C55.99 5.88267 56.278 5.936 56.6034 5.936C56.934 5.936 57.222 5.88267 57.4674 5.776C57.718 5.664 57.9287 5.512 58.0994 5.32C58.27 5.12267 58.398 4.89333 58.4834 4.632C58.5687 4.37067 58.6114 4.088 58.6114 3.784C58.6114 3.48 58.5687 3.19733 58.4834 2.936C58.398 2.66933 58.27 2.44 58.0994 2.248C57.9287 2.05067 57.718 1.896 57.4674 1.784C57.222 1.672 56.934 1.616 56.6034 1.616C56.278 1.616 55.99 1.672 55.7394 1.784C55.4887 1.896 55.278 2.05067 55.1074 2.248C54.9367 2.44 54.8087 2.66933 54.7234 2.936C54.638 3.19733 54.5954 3.48 54.5954 3.784Z" fill="#012236"/>
<path d="M59.4131 1.712V5.848H60.0931V3.512C60.0931 3.32533 60.1171 3.15467 60.1651 3C60.2185 2.84 60.2958 2.70133 60.3971 2.584C60.4985 2.46667 60.6238 2.376 60.7731 2.312C60.9278 2.248 61.1091 2.216 61.3171 2.216C61.5785 2.216 61.7838 2.29067 61.9331 2.44C62.0825 2.58933 62.1571 2.792 62.1571 3.048V5.848H62.8371V3.128C62.8371 2.904 62.8131 2.70133 62.7651 2.52C62.7225 2.33333 62.6451 2.17333 62.5331 2.04C62.4211 1.90667 62.2745 1.80267 62.0931 1.728C61.9118 1.65333 61.6851 1.616 61.4131 1.616C60.7998 1.616 60.3518 1.86667 60.0691 2.368H60.0531V1.712H59.4131Z" fill="#012236"/>
<path d="M38.9064 19.9841L39.0771 20.8481H40.1438V16.7308H36.9438V17.9788H38.6291C38.5793 18.5121 38.4016 18.921 38.0958 19.2054C37.7971 19.4828 37.3704 19.6214 36.8158 19.6214C36.4389 19.6214 36.1189 19.5503 35.8558 19.4081C35.5927 19.2588 35.3793 19.0632 35.2158 18.8214C35.0522 18.5797 34.9313 18.3094 34.8531 18.0108C34.782 17.705 34.7464 17.3921 34.7464 17.0721C34.7464 16.7379 34.782 16.4143 34.8531 16.1014C34.9313 15.7886 35.0522 15.5112 35.2158 15.2694C35.3793 15.0206 35.5927 14.825 35.8558 14.6828C36.1189 14.5334 36.4389 14.4588 36.8158 14.4588C37.2211 14.4588 37.566 14.5654 37.8504 14.7788C38.1349 14.9921 38.3269 15.3121 38.4264 15.7388H40.0264C39.9838 15.305 39.8664 14.921 39.6744 14.5868C39.4824 14.2526 39.2371 13.9717 38.9384 13.7441C38.6469 13.5166 38.3162 13.3459 37.9464 13.2321C37.5838 13.1112 37.2069 13.0508 36.8158 13.0508C36.2327 13.0508 35.7064 13.1539 35.2371 13.3601C34.7749 13.5663 34.3838 13.8508 34.0638 14.2134C33.7438 14.5761 33.4984 15.0028 33.3278 15.4934C33.1571 15.977 33.0718 16.5032 33.0718 17.0721C33.0718 17.6268 33.1571 18.1459 33.3278 18.6294C33.4984 19.1059 33.7438 19.5219 34.0638 19.8774C34.3838 20.233 34.7749 20.5139 35.2371 20.7201C35.7064 20.9192 36.2327 21.0188 36.8158 21.0188C37.1856 21.0188 37.5518 20.9441 37.9144 20.7948C38.2771 20.6383 38.6078 20.3681 38.9064 19.9841Z" fill="#012236"/>
<path d="M42.6802 18.0961C42.6802 17.8757 42.7015 17.6588 42.7442 17.4454C42.7869 17.2321 42.858 17.0437 42.9575 16.8801C43.0642 16.7166 43.2029 16.585 43.3735 16.4854C43.5442 16.3788 43.7575 16.3254 44.0135 16.3254C44.2695 16.3254 44.4829 16.3788 44.6535 16.4854C44.8313 16.585 44.97 16.7166 45.0695 16.8801C45.1762 17.0437 45.2509 17.2321 45.2935 17.4454C45.3362 17.6588 45.3575 17.8757 45.3575 18.0961C45.3575 18.3166 45.3362 18.5334 45.2935 18.7468C45.2509 18.953 45.1762 19.1414 45.0695 19.3121C44.97 19.4757 44.8313 19.6072 44.6535 19.7068C44.4829 19.8063 44.2695 19.8561 44.0135 19.8561C43.7575 19.8561 43.5442 19.8063 43.3735 19.7068C43.2029 19.6072 43.0642 19.4757 42.9575 19.3121C42.858 19.1414 42.7869 18.953 42.7442 18.7468C42.7015 18.5334 42.6802 18.3166 42.6802 18.0961ZM41.1655 18.0961C41.1655 18.537 41.2331 18.9352 41.3682 19.2908C41.5033 19.6463 41.6953 19.9521 41.9442 20.2081C42.1931 20.457 42.4917 20.649 42.8402 20.7841C43.1886 20.9192 43.5797 20.9868 44.0135 20.9868C44.4473 20.9868 44.8384 20.9192 45.1869 20.7841C45.5424 20.649 45.8446 20.457 46.0935 20.2081C46.3424 19.9521 46.5344 19.6463 46.6695 19.2908C46.8046 18.9352 46.8722 18.537 46.8722 18.0961C46.8722 17.6552 46.8046 17.257 46.6695 16.9014C46.5344 16.5388 46.3424 16.233 46.0935 15.9841C45.8446 15.7281 45.5424 15.5326 45.1869 15.3974C44.8384 15.2552 44.4473 15.1841 44.0135 15.1841C43.5797 15.1841 43.1886 15.2552 42.8402 15.3974C42.4917 15.5326 42.1931 15.7281 41.9442 15.9841C41.6953 16.233 41.5033 16.5388 41.3682 16.9014C41.2331 17.257 41.1655 17.6552 41.1655 18.0961Z" fill="#012236"/>
<path d="M49.201 18.0961C49.201 17.8757 49.2224 17.6588 49.265 17.4454C49.3077 17.2321 49.3788 17.0437 49.4784 16.8801C49.585 16.7166 49.7237 16.585 49.8944 16.4854C50.065 16.3788 50.2784 16.3254 50.5344 16.3254C50.7904 16.3254 51.0037 16.3788 51.1744 16.4854C51.3521 16.585 51.4908 16.7166 51.5904 16.8801C51.697 17.0437 51.7717 17.2321 51.8144 17.4454C51.857 17.6588 51.8784 17.8757 51.8784 18.0961C51.8784 18.3166 51.857 18.5334 51.8144 18.7468C51.7717 18.953 51.697 19.1414 51.5904 19.3121C51.4908 19.4757 51.3521 19.6072 51.1744 19.7068C51.0037 19.8063 50.7904 19.8561 50.5344 19.8561C50.2784 19.8561 50.065 19.8063 49.8944 19.7068C49.7237 19.6072 49.585 19.4757 49.4784 19.3121C49.3788 19.1414 49.3077 18.953 49.265 18.7468C49.2224 18.5334 49.201 18.3166 49.201 18.0961ZM47.6864 18.0961C47.6864 18.537 47.7539 18.9352 47.889 19.2908C48.0241 19.6463 48.2161 19.9521 48.465 20.2081C48.7139 20.457 49.0126 20.649 49.361 20.7841C49.7095 20.9192 50.1006 20.9868 50.5344 20.9868C50.9681 20.9868 51.3593 20.9192 51.7077 20.7841C52.0633 20.649 52.3655 20.457 52.6144 20.2081C52.8633 19.9521 53.0553 19.6463 53.1904 19.2908C53.3255 18.9352 53.393 18.537 53.393 18.0961C53.393 17.6552 53.3255 17.257 53.1904 16.9014C53.0553 16.5388 52.8633 16.233 52.6144 15.9841C52.3655 15.7281 52.0633 15.5326 51.7077 15.3974C51.3593 15.2552 50.9681 15.1841 50.5344 15.1841C50.1006 15.1841 49.7095 15.2552 49.361 15.3974C49.0126 15.5326 48.7139 15.7281 48.465 15.9841C48.2161 16.233 48.0241 16.5388 47.889 16.9014C47.7539 17.257 47.6864 17.6552 47.6864 18.0961Z" fill="#012236"/>
<path d="M56.9485 19.5468C56.7139 19.5468 56.5183 19.497 56.3619 19.3974C56.2054 19.2979 56.0774 19.1699 55.9779 19.0134C55.8854 18.857 55.8179 18.6828 55.7752 18.4908C55.7396 18.2917 55.7219 18.0926 55.7219 17.8934C55.7219 17.6872 55.7432 17.4917 55.7859 17.3068C55.8356 17.1148 55.9103 16.9477 56.0099 16.8054C56.1165 16.6561 56.2445 16.5388 56.3939 16.4534C56.5503 16.3681 56.7352 16.3254 56.9485 16.3254C57.1974 16.3254 57.4036 16.3717 57.5672 16.4641C57.7308 16.5566 57.8623 16.681 57.9619 16.8374C58.0614 16.9939 58.1325 17.1752 58.1752 17.3814C58.2179 17.5806 58.2392 17.7939 58.2392 18.0214C58.2392 18.2206 58.2108 18.4126 58.1539 18.5974C58.1041 18.7752 58.0259 18.9352 57.9192 19.0774C57.8125 19.2197 57.6774 19.3334 57.5139 19.4188C57.3503 19.5041 57.1619 19.5468 56.9485 19.5468ZM59.6792 20.4961V15.3334H58.2392V16.0694H58.2179C58.033 15.7494 57.8019 15.5219 57.5245 15.3868C57.2543 15.2517 56.9379 15.1841 56.5752 15.1841C56.1912 15.1841 55.8499 15.2588 55.5512 15.4081C55.2596 15.5574 55.0143 15.7601 54.8152 16.0161C54.6161 16.265 54.4632 16.5566 54.3565 16.8908C54.257 17.2179 54.2072 17.5592 54.2072 17.9148C54.2072 18.2917 54.2499 18.6508 54.3352 18.9921C54.4276 19.3263 54.5699 19.6214 54.7619 19.8774C54.9539 20.1263 55.1992 20.3254 55.4979 20.4748C55.7965 20.617 56.1521 20.6881 56.5645 20.6881C56.8988 20.6881 57.2152 20.6206 57.5139 20.4854C57.8196 20.3432 58.0543 20.1263 58.2179 19.8348H58.2392V20.5601C58.2463 20.9512 58.1503 21.2748 57.9512 21.5308C57.7592 21.7868 57.4499 21.9148 57.0232 21.9148C56.753 21.9148 56.5148 21.8579 56.3085 21.7441C56.1023 21.6374 55.9636 21.4419 55.8925 21.1574H54.3885C54.4099 21.4703 54.4952 21.737 54.6445 21.9574C54.801 22.185 54.993 22.3699 55.2205 22.5121C55.4552 22.6543 55.7112 22.7574 55.9885 22.8214C56.273 22.8926 56.5503 22.9281 56.8205 22.9281C57.4534 22.9281 57.9583 22.8428 58.3352 22.6721C58.7121 22.5014 59.0001 22.2917 59.1992 22.0428C59.3983 21.801 59.5263 21.5379 59.5832 21.2534C59.6472 20.969 59.6792 20.7166 59.6792 20.4961Z" fill="#012236"/>
<path d="M60.9414 13.2321V20.8481H62.456V13.2321H60.9414Z" fill="#012236"/>
<path d="M67.3607 17.4988H64.8967C64.9038 17.3921 64.9251 17.2712 64.9607 17.1361C65.0034 17.001 65.0709 16.873 65.1634 16.7521C65.2629 16.6312 65.3909 16.5317 65.5474 16.4534C65.7109 16.3681 65.9136 16.3254 66.1554 16.3254C66.5251 16.3254 66.7989 16.425 66.9767 16.6241C67.1616 16.8232 67.2896 17.1148 67.3607 17.4988ZM64.8967 18.4588H68.8754C68.9038 18.0321 68.8682 17.6232 68.7687 17.2321C68.6691 16.841 68.5056 16.4926 68.278 16.1868C68.0576 15.881 67.7731 15.6392 67.4247 15.4614C67.0762 15.2766 66.6674 15.1841 66.198 15.1841C65.7785 15.1841 65.3945 15.2588 65.046 15.4081C64.7047 15.5574 64.4096 15.7637 64.1607 16.0268C63.9118 16.2828 63.7198 16.5886 63.5847 16.9441C63.4496 17.2997 63.382 17.6837 63.382 18.0961C63.382 18.5228 63.446 18.9139 63.574 19.2694C63.7091 19.625 63.8976 19.9308 64.1394 20.1868C64.3811 20.4428 64.6762 20.6419 65.0247 20.7841C65.3731 20.9192 65.7642 20.9868 66.198 20.9868C66.8238 20.9868 67.3571 20.8446 67.798 20.5601C68.2389 20.2757 68.566 19.8028 68.7794 19.1414H67.446C67.3962 19.3121 67.2611 19.4757 67.0407 19.6321C66.8202 19.7814 66.5571 19.8561 66.2514 19.8561C65.8247 19.8561 65.4976 19.7459 65.27 19.5254C65.0425 19.305 64.918 18.9494 64.8967 18.4588Z" fill="#012236"/>
<path d="M74.5771 16.8161V14.5334H75.8784C76.0704 14.5334 76.2553 14.5477 76.4331 14.5761C76.6109 14.6046 76.7673 14.6614 76.9024 14.7468C77.0376 14.825 77.1442 14.9388 77.2224 15.0881C77.3078 15.2374 77.3504 15.433 77.3504 15.6748C77.3504 15.9166 77.3078 16.1121 77.2224 16.2614C77.1442 16.4108 77.0376 16.5281 76.9024 16.6134C76.7673 16.6917 76.6109 16.745 76.4331 16.7734C76.2553 16.8019 76.0704 16.8161 75.8784 16.8161H74.5771ZM72.9024 13.2321V20.8481H74.5771V18.1174H76.3371C76.8136 18.1174 77.2189 18.0499 77.5531 17.9148C77.8873 17.7726 78.1576 17.5877 78.3638 17.3601C78.5771 17.1326 78.73 16.873 78.8224 16.5814C78.922 16.2828 78.9718 15.9806 78.9718 15.6748C78.9718 15.3619 78.922 15.0597 78.8224 14.7681C78.73 14.4766 78.5771 14.217 78.3638 13.9894C78.1576 13.7619 77.8873 13.5806 77.5531 13.4454C77.2189 13.3032 76.8136 13.2321 76.3371 13.2321H72.9024Z" fill="#012236"/>
<path d="M79.8997 13.2321V20.8481H81.4144V13.2321H79.8997Z" fill="#012236"/>
<path d="M82.543 17.0294C82.5644 16.6739 82.6533 16.3788 82.8097 16.1441C82.9661 15.9094 83.1653 15.721 83.407 15.5788C83.6488 15.4366 83.919 15.337 84.2177 15.2801C84.5235 15.2161 84.8293 15.1841 85.135 15.1841C85.4124 15.1841 85.6933 15.2054 85.9777 15.2481C86.2621 15.2837 86.5217 15.3583 86.7564 15.4721C86.991 15.5859 87.183 15.7459 87.3324 15.9521C87.4817 16.1512 87.5564 16.4179 87.5564 16.7521V19.6214C87.5564 19.8703 87.5706 20.1086 87.599 20.3361C87.6275 20.5637 87.6773 20.7343 87.7484 20.8481H86.2124C86.1839 20.7628 86.159 20.6774 86.1377 20.5921C86.1235 20.4997 86.1128 20.4072 86.1057 20.3148C85.8639 20.5637 85.5795 20.7379 85.2524 20.8374C84.9253 20.937 84.591 20.9868 84.2497 20.9868C83.9866 20.9868 83.7413 20.9548 83.5137 20.8908C83.2861 20.8268 83.087 20.7272 82.9164 20.5921C82.7457 20.457 82.6106 20.2863 82.511 20.0801C82.4186 19.8739 82.3724 19.6286 82.3724 19.3441C82.3724 19.0312 82.4257 18.7752 82.5324 18.5761C82.6461 18.3699 82.7884 18.2063 82.959 18.0854C83.1368 17.9646 83.3359 17.8757 83.5564 17.8188C83.7839 17.7548 84.0115 17.705 84.239 17.6694C84.4666 17.6339 84.6906 17.6054 84.911 17.5841C85.1315 17.5628 85.327 17.5308 85.4977 17.4881C85.6684 17.4454 85.8035 17.385 85.903 17.3068C86.0026 17.2214 86.0488 17.1006 86.0417 16.9441C86.0417 16.7806 86.0133 16.6526 85.9564 16.5601C85.9066 16.4606 85.8355 16.3859 85.743 16.3361C85.6577 16.2792 85.5546 16.2437 85.4337 16.2294C85.3199 16.2081 85.1955 16.1974 85.0604 16.1974C84.7617 16.1974 84.527 16.2614 84.3564 16.3894C84.1857 16.5174 84.0861 16.7308 84.0577 17.0294H82.543ZM86.0417 18.1494C85.9777 18.2063 85.8959 18.2526 85.7964 18.2881C85.7039 18.3166 85.6008 18.3414 85.487 18.3628C85.3804 18.3841 85.2666 18.4019 85.1457 18.4161C85.0248 18.4303 84.9039 18.4481 84.783 18.4694C84.6692 18.4908 84.5555 18.5192 84.4417 18.5548C84.335 18.5903 84.239 18.6401 84.1537 18.7041C84.0755 18.761 84.0115 18.8357 83.9617 18.9281C83.9119 19.0206 83.887 19.1379 83.887 19.2801C83.887 19.4152 83.9119 19.529 83.9617 19.6214C84.0115 19.7139 84.079 19.7886 84.1644 19.8454C84.2497 19.8952 84.3493 19.9308 84.463 19.9521C84.5768 19.9734 84.6941 19.9841 84.815 19.9841C85.1137 19.9841 85.3448 19.9343 85.5084 19.8348C85.6719 19.7352 85.7928 19.6179 85.871 19.4828C85.9493 19.3406 85.9955 19.1983 86.0097 19.0561C86.031 18.9139 86.0417 18.8001 86.0417 18.7148V18.1494Z" fill="#012236"/>
<path d="M91.452 21.5308L93.756 15.3334H92.188L90.9827 19.1094H90.9614L89.7134 15.3334H88.1027L90.0334 20.5068C90.076 20.6134 90.0974 20.7272 90.0974 20.8481C90.0974 21.0117 90.0476 21.161 89.948 21.2961C89.8556 21.4312 89.7098 21.5094 89.5107 21.5308C89.3614 21.5379 89.212 21.5343 89.0627 21.5201C88.9134 21.5059 88.7676 21.4917 88.6254 21.4774V22.7254C88.7818 22.7397 88.9347 22.7503 89.084 22.7574C89.2405 22.7717 89.3969 22.7788 89.5534 22.7788C90.0725 22.7788 90.4778 22.6828 90.7694 22.4908C91.0609 22.2988 91.2885 21.9788 91.452 21.5308Z" fill="#012236"/>
</svg>
