<svg width="115" height="24" viewBox="0 0 115 24" fill="none" xmlns="http://www.w3.org/2000/svg">
<path d="M30 4V21.7239H33.6348V10.1445H33.7819L38.3687 21.6374H40.8438L45.4306 10.1878H45.5777V21.7239H49.2125V4H44.5911L39.7101 15.9083H39.5024L34.6214 4H30Z" fill="#146CEF"/>
<path d="M63.2475 4V15.19C63.2475 17.2151 61.8282 18.6776 59.6474 18.6776C57.4751 18.6776 56.0472 17.2151 56.0472 15.19V4H52.2999V15.5102C52.2999 19.3873 55.225 21.9749 59.6474 21.9749C64.0524 21.9749 66.9948 19.3873 66.9948 15.5102V4H63.2475Z" fill="#146CEF"/>
<path d="M70.0779 21.7239H81.4237V18.6344H73.8252V4H70.0779V21.7239Z" fill="#146CEF"/>
<path d="M83.9053 21.7239H95.251V18.6344H87.6526V4H83.9053V21.7239Z" fill="#146CEF"/>
<path d="M101.24 21.7239L102.555 17.6824H108.951L110.266 21.7239H114.282L108.172 4H103.343L97.2242 21.7239H101.24ZM103.507 14.7573L105.688 8.0502H105.827L108.007 14.7573H103.507Z" fill="#146CEF"/>
<path fill-rule="evenodd" clip-rule="evenodd" d="M3.81831 11C3.81831 7.03367 7.03366 3.81831 11 3.81831C14.9663 3.81831 18.1817 7.03366 18.1817 11V23.9869H22V11C22 4.92487 17.0751 0 11 0C4.92487 0 0 4.92487 0 11V23.9869H3.81831V11ZM9.03215 11.3436C9.03215 10.2384 9.92811 9.34241 11.0333 9.34241C12.1385 9.34241 13.0345 10.2384 13.0345 11.3436V23.9435H16.8528V11.3436C16.8528 8.12957 14.2473 5.5241 11.0333 5.5241C7.81931 5.5241 5.21384 8.12957 5.21384 11.3436V23.9435H9.03215V11.3436Z" fill="#146CEF"/>
</svg>
