<svg width="123" height="25" viewBox="0 0 123 25" fill="none" xmlns="http://www.w3.org/2000/svg">
<path d="M29 4V23.6912H33.0382V10.8265H33.2017L38.2975 23.595H41.0474L46.1432 10.8746H46.3067V23.6912H50.3449V4H45.2106L39.7878 17.23H39.5571L34.1343 4H29Z" fill="#146CEF"/>
<path d="M65.9378 4V16.432C65.9378 18.6818 64.3609 20.3067 61.938 20.3067C59.5247 20.3067 57.9382 18.6818 57.9382 16.432V4H53.775V16.7877C53.775 21.0952 57.0248 23.97 61.938 23.97C66.832 23.97 70.101 21.0952 70.101 16.7877V4H65.9378Z" fill="#146CEF"/>
<path d="M73.5263 23.6912H86.1313V20.2587H77.6895V4H73.5263V23.6912Z" fill="#146CEF"/>
<path d="M88.8884 23.6912H101.493V20.2587H93.0516V4H88.8884V23.6912Z" fill="#146CEF"/>
<path d="M108.147 23.6912L109.608 19.201H116.714L118.175 23.6912H122.636L115.848 4H110.483L103.686 23.6912H108.147ZM110.666 15.9512L113.089 8.49974H113.243L115.666 15.9512H110.666Z" fill="#146CEF"/>
<path d="M11.3448 3.74834C7.14937 3.74834 3.74834 7.14937 3.74834 11.3448V21.8743C3.74834 24.2743 1.24945 24.8742 0 24.8742V11.3448C0 5.07922 5.07922 0 11.3448 0C17.6103 0 22.6895 5.07922 22.6895 11.3448V21.8743C22.6895 24.2743 20.1906 24.8742 18.9412 24.8742V11.3448C18.9412 7.14937 15.5401 3.74834 11.3448 3.74834Z" fill="#146CEF"/>
<path d="M11.3793 9.6177C10.228 9.6177 9.29458 10.5511 9.29458 11.7025V21.8743C9.29458 24.2743 6.64271 24.8439 5.31677 24.8287V11.7025C5.31677 8.3542 8.03108 5.63989 11.3793 5.63989C14.7276 5.63989 17.4419 8.3542 17.4419 11.7025V21.8743C17.4294 24.2743 14.7848 24.8439 13.4641 24.8287V11.7025C13.4641 10.5511 12.5307 9.6177 11.3793 9.6177Z" fill="#146CEF"/>
</svg>
