<svg width="23" height="25" viewBox="0 0 23 25" fill="none" xmlns="http://www.w3.org/2000/svg">
<path d="M11.3448 3.74834C7.14937 3.74834 3.74834 7.14937 3.74834 11.3448V21.8743C3.74834 24.2743 1.24945 24.8742 0 24.8742V11.3448C0 5.07922 5.07922 0 11.3448 0C17.6103 0 22.6895 5.07922 22.6895 11.3448V21.8743C22.6895 24.2743 20.1906 24.8742 18.9412 24.8742V11.3448C18.9412 7.14937 15.5401 3.74834 11.3448 3.74834Z" fill="#146CEF"/>
<path d="M11.3793 9.6177C10.228 9.6177 9.29458 10.5511 9.29458 11.7025V21.8743C9.29458 24.2743 6.64271 24.8439 5.31677 24.8287V11.7025C5.31677 8.3542 8.03108 5.63989 11.3793 5.63989C14.7276 5.63989 17.4419 8.3542 17.4419 11.7025V21.8743C17.4294 24.2743 14.7848 24.8439 13.4641 24.8287V11.7025C13.4641 10.5511 12.5307 9.6177 11.3793 9.6177Z" fill="#146CEF"/>
</svg>
